<svg width="21" height="32" viewBox="0 0 21 32" fill="none" xmlns="http://www.w3.org/2000/svg">
<path d="M20.7035 3.48137C20.4263 3.05991 20.0212 3.04781 19.5597 3.03401C19.5074 3.03245 19.4544 3.03087 19.4007 3.02866C19.3599 3.0268 19.3148 3.02752 19.2677 3.02827C19.0805 3.03125 18.8616 3.03474 18.7513 2.87862C18.6234 2.69761 18.6355 2.34782 18.6455 2.05905C18.6487 1.9678 18.6516 1.88259 18.6499 1.81078C18.6319 1.13997 18.5944 0.427388 18.3336 0.189174C18.1369 0.0104463 17.5484 0.0352067 17.0056 0.0580417C16.8297 0.0654442 16.6586 0.0726443 16.5072 0.0726443H4.95497C4.72237 0.0726443 4.47856 0.0538439 4.239 0.0353716C3.77221 -0.000622723 3.32156 -0.0353715 3.00155 0.0726443C2.53713 0.230172 2.50568 1.05795 2.47607 1.83742L2.47447 1.87936C2.44961 2.52284 2.28896 3.01938 1.75652 2.96937C1.13726 2.91213 0.521059 2.89409 0.241071 3.45043C-0.0896021 4.10869 -0.0214045 4.79773 0.100748 6.03192C0.118197 6.20822 0.136746 6.39564 0.155392 6.59568H20.8822C20.894 6.44947 20.9066 6.30513 20.919 6.16312C21.0161 5.05273 21.1007 4.08527 20.7035 3.48137Z" fill="#8047F8"/>
<path fill-rule="evenodd" clip-rule="evenodd" d="M1.76953 7.81975C2.09324 12.1687 2.41342 16.5227 2.7336 20.8768L2.7338 20.8794C2.90765 23.2435 3.0815 25.6076 3.25591 27.971H3.91725C3.96232 28.3409 4.01388 28.7976 4.06825 29.2792C4.17861 30.2566 4.30053 31.3364 4.40302 32H4.47617C5.1498 31.7553 9.8067 29.7794 9.80878 21.9129C9.80793 21.8904 9.80868 21.868 9.81102 21.8458H8.66051C8.60481 21.8452 8.55082 21.8268 8.50686 21.7932C8.46289 21.7597 8.43137 21.7129 8.41715 21.66C8.30503 21.3851 8.21463 21.1021 8.14676 20.8136C7.46992 21.193 6.93243 21.7725 6.6109 22.4693C6.30569 21.7556 6.26574 20.9594 6.49804 20.2198C6.73034 19.4802 7.22011 18.8442 7.88177 18.4229C7.89029 16.1274 8.75611 13.9147 10.3153 12.2034L10.3397 12.1822C10.385 12.1433 10.443 12.1217 10.5032 12.1212C10.538 12.1215 10.5723 12.1289 10.6041 12.1429C10.6362 12.157 10.665 12.1777 10.6885 12.2034C12.2659 13.917 13.1272 16.151 13.1004 18.4601C13.7744 18.8696 14.2742 19.5051 14.5069 20.2488C14.7396 20.9924 14.6895 21.7936 14.3659 22.5038C14.0461 21.8059 13.5081 21.226 12.83 20.8481C12.7886 21.1277 12.7123 21.4013 12.6029 21.6627C12.565 21.7741 12.4893 21.8458 12.4136 21.8458H11.1866C11.1886 21.8591 11.19 21.8725 11.1907 21.886L11.1912 21.889V21.8955C11.1916 21.9071 11.1917 21.9187 11.1912 21.9303C11.208 30.0227 16.1593 31.8595 16.5767 32H16.7194C16.7559 31.3626 16.8745 30.4831 16.9902 29.6257C17.0699 29.0348 17.1482 28.4544 17.1972 27.971H17.8662C18.0803 24.9941 18.3005 22.0255 18.5208 19.0569L18.5209 19.0553L18.5209 19.0545C18.8027 15.2573 19.0844 11.46 19.3533 7.64496H1.81237C1.76188 7.65475 1.76532 7.73674 1.76953 7.81975ZM10.5032 12.1212L10.5019 12.1212H10.5046L10.5032 12.1212Z" fill="#8047F8"/>
</svg>
